<svg xmlns="http://www.w3.org/2000/svg" enable-background="new 0 0 16 16" viewBox="0 0 16 16" fill="white">
	<path d="M3.43178 0.537356L0.624543 3.34947C0.280966 3.69365 0.280966 4.25167 0.624543 4.59584L3.43178 7.40796C3.77536 7.75213 4.3324 7.75213 4.67598 7.40796L7.48322 4.59584C7.82679 4.25166 7.82679 3.69365 7.48322 3.34947L4.67598 0.537356C4.3324 0.193181 3.77536 0.193181 3.43178 0.537356Z"></path>
	<path d="M11.3844 0.537356L8.57718 3.34947C8.2336 3.69365 8.2336 4.25167 8.57718 4.59584L11.3844 7.40796C11.728 7.75213 12.285 7.75213 12.6286 7.40796L15.4359 4.59584C15.7794 4.25167 15.7794 3.69365 15.4359 3.34947L12.6286 0.537356C12.285 0.193181 11.728 0.193182 11.3844 0.537356Z"></path>
	<path d="M3.42934 8.50611L0.622102 11.3182C0.278524 11.6624 0.278524 12.2204 0.622102 12.5646L3.42934 15.3767C3.77291 15.7209 4.32996 15.7209 4.67354 15.3767L7.48078 12.5646C7.82435 12.2204 7.82435 11.6624 7.48078 11.3182L4.67354 8.50611C4.32996 8.16193 3.77291 8.16193 3.42934 8.50611Z"></path>
	<path d="M11.3839 8.50611L8.57669 11.3182C8.23311 11.6624 8.23311 12.2204 8.57669 12.5646L11.3839 15.3767C11.7275 15.7209 12.2846 15.7209 12.6281 15.3767L15.4354 12.5646C15.7789 12.2204 15.7789 11.6624 15.4354 11.3182L12.6281 8.50611C12.2846 8.16193 11.7275 8.16193 11.3839 8.50611Z"></path>
</svg>
