<svg id="eEIiJDs4n7f1" xmlns="http://www.w3.org/2000/svg" xmlns:xlink="http://www.w3.org/1999/xlink" viewBox="0 0 125 125" fill="white">
	<path d="M46,57.93454c0-4.091568,0-7.690869,0-11.606331c11.830765,0,23.271457,0,35,0c0,11.625528,0,23.105674,0,35-11.362491,0-22.805583,0-35,0c0-7.547676,0-15.224541,0-23.393669Z" transform="translate(-.115846-.631441)" />
	<path d="M46,57.93454c0-4.091568,0-7.690869,0-11.606331c11.830765,0,23.271457,0,35,0c0,11.625528,0,23.105674,0,35-11.362491,0-22.805583,0-35,0c0-7.547676,0-15.224541,0-23.393669Z" transform="translate(-.115846-45.631441)" />
	<path d="M46,57.93454c0-4.091568,0-7.690869,0-11.606331c11.830765,0,23.271457,0,35,0c0,11.625528,0,23.105674,0,35-11.362491,0-22.805583,0-35,0c0-7.547676,0-15.224541,0-23.393669Z" transform="translate(-.115846 43.368559)"/>
	<path d="M46,57.93454c0-4.091568,0-7.690869,0-11.606331c11.830765,0,23.271457,0,35,0c0,11.625528,0,23.105674,0,35-11.362491,0-22.805583,0-35,0c0-7.547676,0-15.224541,0-23.393669Z" transform="translate(-45.115846-.631441)" />
	<path d="M15.331096,104.020812c-3.020044-4.127342-5.756229-7.961735-9.073873-12.610961c11.721564,0,22.329608,0,33.360149,0c0,10.317719,0,20.760153,0,32.028493-9.299967-5.187983-18.073352-10.365336-24.286276-19.417532Z" transform="matrix(1.049156 0 0 1.092777-5.680649-10.193815)" />
	<path d="M15.331096,104.020812c-3.020044-4.127342-5.756229-7.961735-9.073873-12.610961c11.721564,0,22.329608,0,33.360149,0c0,10.317719,0,20.760153,0,32.028493-9.299968-5.187983-18.073353-10.365336-24.286276-19.417532Z" transform="matrix(.004853 1.049145-1.092765 0.005055 136.845436-6.048729)" />
	<path d="M15.331096,104.020812c-3.020044-4.127342-5.756229-7.961735-9.073873-12.610961c11.721564,0,22.329608,0,33.360149,0c0,10.317719,0,20.760153,0,32.028493-9.299968-5.187983-18.073353-10.365336-24.286276-19.417532Z" transform="matrix(-1.049089 0.011864-.012357-1.092707 131.693928 135.110957)" />
</svg>
