<svg width="497" height="289" viewBox="0 0 497 289" fill="none" xmlns="http://www.w3.org/2000/svg">
<path fill-rule="evenodd" clip-rule="evenodd" d="M191.083 265.209C234.242 263.677 279.794 295.816 315.551 271.554C354.029 245.446 369.047 193.287 365.495 146.868C362.147 103.124 331.371 68.1428 297.827 39.9362C267.604 14.5218 230.478 -2.06223 191.083 0.207092C153.696 2.36078 125.51 28.5367 95.9469 51.5654C59.5274 79.9354 10.4618 101.292 2.80934 146.868C-5.48818 196.285 15.0982 254.079 57.4715 280.713C96.9519 305.529 144.503 266.862 191.083 265.209Z" fill="#F0F3F6"/>
<path fill-rule="evenodd" clip-rule="evenodd" d="M429.14 193.138C417.956 190.563 408.473 179.18 397.626 182.948C385.953 187.004 378.51 199.36 376.229 211.52C374.08 222.979 379.574 234.075 386.244 243.623C392.254 252.226 400.644 259.037 410.913 261.164C420.658 263.182 429.694 258.402 438.866 254.524C450.167 249.746 464.231 247.639 469.33 236.466C474.859 224.351 473.549 208.1 464.504 198.349C456.077 189.263 441.211 195.918 429.14 193.138Z" fill="#F0F3F6"/>
<path fill-rule="evenodd" clip-rule="evenodd" d="M477.747 119.658C474.009 113.683 474.834 104.624 468.488 101.551C461.659 98.2432 453.063 100.377 446.793 104.666C440.885 108.708 438.452 115.911 437.203 122.953C436.077 129.297 436.763 135.897 440.298 141.279C443.652 146.386 449.651 148.234 455.317 150.533C462.298 153.365 469.319 158.556 476.384 155.919C484.045 153.059 490.532 145.435 490.839 137.274C491.124 129.67 481.781 126.105 477.747 119.658Z" fill="#F0F3F6"/>
<path fill-rule="evenodd" clip-rule="evenodd" d="M409.235 65.0213C404.639 62.5804 401.821 56.4813 396.627 56.8589C391.038 57.2652 386.328 61.8041 383.901 66.8628C381.615 71.63 382.719 77.1355 384.52 82.1007C386.143 86.5744 389.019 90.5424 393.267 92.6794C397.299 94.7075 401.818 93.6739 406.291 93.0518C411.802 92.2854 418.209 93.013 421.754 88.7174C425.598 84.0597 426.932 76.7874 424.115 71.4543C421.489 66.4853 414.196 67.6556 409.235 65.0213Z" fill="#F0F3F6"/>
<g clip-path="url(#clip0_2272_194321)">
<path d="M186.25 190.861C186.25 187.383 186.588 183.964 187.182 180.645H176.732C173.44 180.645 170.783 177.981 170.783 174.682C170.783 171.383 173.44 168.719 176.732 168.719H190.712C192.755 163.849 195.472 159.318 198.724 155.243H176.732C173.44 155.243 170.783 152.58 170.783 149.28C170.783 145.981 173.44 143.317 176.732 143.317H211.713C220.716 137.315 231.543 133.817 243.164 133.817C245.9 133.817 248.597 134.015 251.234 134.393V64.9257C251.234 58.3467 245.9 53 239.336 53H133.898C127.334 53 122 58.3467 122 64.9257V202.727C122 209.306 127.334 214.653 133.898 214.653H191.426C188.095 207.418 186.231 199.348 186.231 190.861H186.25ZM220.339 129.643H176.712C173.42 129.643 170.763 126.979 170.763 123.68C170.763 120.38 173.42 117.717 176.712 117.717H220.339C223.631 117.717 226.288 120.38 226.288 123.68C226.288 126.979 223.631 129.643 220.339 129.643ZM154.899 83.8677H218.356C222.738 83.8677 226.288 87.4255 226.288 91.8182C226.288 96.2108 222.738 99.7687 218.356 99.7687H154.899C150.516 99.7687 146.966 96.2108 146.966 91.8182C146.966 87.4255 150.516 83.8677 154.899 83.8677ZM153.094 180.665C149.723 180.665 146.986 177.922 146.986 174.543C146.986 171.164 149.723 168.421 153.094 168.421C156.465 168.421 159.202 171.164 159.202 174.543C159.202 177.922 156.465 180.665 153.094 180.665ZM153.094 155.263C149.723 155.263 146.986 152.52 146.986 149.141C146.986 145.762 149.723 143.019 153.094 143.019C156.465 143.019 159.202 145.762 159.202 149.141C159.202 152.52 156.465 155.263 153.094 155.263ZM153.094 129.643C149.723 129.643 146.986 126.9 146.986 123.521C146.986 120.142 149.723 117.399 153.094 117.399C156.465 117.399 159.202 120.142 159.202 123.521C159.202 126.9 156.465 129.643 153.094 129.643Z" fill="#969EAA"/>
<path d="M243.639 147.074C219.149 147.074 199.279 166.99 199.279 191.537C199.279 216.084 219.149 236 243.639 236C268.13 236 288 216.084 288 191.537C288 166.99 268.13 147.074 243.639 147.074ZM268.765 183.448L242.132 210.141C239.812 212.467 236.044 212.467 233.724 210.141C233.486 209.903 233.288 209.644 233.11 209.366L219.308 195.532C216.987 193.207 216.987 189.43 219.308 187.105C221.628 184.779 225.396 184.779 227.716 187.105L238.008 197.421L260.376 175C262.696 172.675 266.464 172.675 268.784 175C271.105 177.326 271.105 181.102 268.784 183.428L268.765 183.448Z" fill="#969EAA"/>
</g>
<defs>
<clipPath id="clip0_2272_194321">
<rect width="166" height="183" fill="white" transform="translate(122 53)"/>
</clipPath>
</defs>
</svg>
