<svg xmlns="http://www.w3.org/2000/svg" xmlns:xlink="http://www.w3.org/1999/xlink" viewBox="0 0 16 16" fill="white">
	<path d="M2.860679,0.488892L0.576528,2.77304c-.279557.279561-.279557.732815,0,1.012368L2.860679,6.06956c.27956.279553.732804.279553,1.012363,0L6.157197,3.785408c.279551-.279562.279551-.732807,0-1.012368L3.873042,0.488892c-.279559-.279557-.732803-.279557-1.012363,0Z" transform="matrix(.71108 0.703111-.703111 0.71108 7.911553 3.300933)"/>
	<path d="M10.813305,0.488893L8.529164,2.77304c-.279559.279561-.279559.732814,0,1.012367L10.813305,6.06956c.279576.279553.732788.279553,1.012363,0l2.284206-2.284153c.279494-.279553.279494-.732806,0-1.012367L11.825668,0.488893c-.279575-.279557-.732787-.279556-1.012363,0Z" transform="matrix(.707441 0.706772-.706772 0.707441 6.954706-6.977548)"/>
	<path d="M2.85824,8.457645L0.574086,10.74177c-.279557.279577-.279557.732813,0,1.01239L2.85824,14.038292c.279551.279576.732803.279576,1.012362,0L6.154756,11.75416c.279551-.279577.279551-.732813,0-1.01239L3.870602,8.457645c-.279559-.27956-.732811-.27956-1.012362,0Z" transform="matrix(.706754 0.70746-.70746 0.706754 8.922314 2.352902)"/>
</svg>
