<svg xmlns="http://www.w3.org/2000/svg" xmlns:xlink="http://www.w3.org/1999/xlink" viewBox="0 0 450 450" fill="white">
	<path d="M300.948151,209.006546c19.44815-6.861038,38.489013-13.681335,58.075622-20.697128.260254.777679.988861,2.70462,1.551361,4.678909c2.545227,8.933487,4.884766,17.929825,7.64682,26.794952.937104,3.007798.499085,4.480271-2.395599,5.815934-21.94458,10.125686-44.679871,17.864624-68.202972,23.420364-31.810547,7.513077-64.112427,9.485794-96.573166,7.801346-33.495819-1.738129-66.068467-8.725678-97.480782-20.658173-8.383026-3.184448-16.565346-6.894165-24.876175-10.273285-3.122513-1.269561-4.188194-2.838577-3.04834-6.476288c3.312119-10.570343,6.125847-21.296859,9.340966-32.691802c37.27774,18.68637,76.233764,29.455932,117.678894,32.106964.129745-1.643769.319244-2.935776.320587-4.227967.019287-18.664612-.133927-37.331329.128189-55.992263.057678-4.105759-1.686005-5.255234-5.094238-5.549958-31.566239-2.72998-61.004624-12.370361-88.997834-26.986274-4.621963-2.413239-5.742233-4.817559-4.151619-9.754036c3.247429-10.078453,5.875382-20.356522,9.003212-31.417748c27.328888,17.031166,56.483933,27.626206,88.986725,30.627358c0-37.780449,0-75.438782,0-113.387485c12.992798,0,25.227677,0,38.084702,0c0,37.630874,0,75.025119,0,113.284968c32.374771-2.953163,61.3759-13.366676,88.972641-30.503601c2.219879,7.836426,4.327667,15.245095,6.414947,22.659539.988892,3.512725,1.602783,7.176429,2.995484,10.517944c1.555572,3.732262.030243,5.415054-3.024262,7.071579-23.563995,12.779327-48.440033,21.723862-74.974457,25.845184-5.402435.839112-10.895965,1.162018-16.24385,2.238098-1.546982.31128-3.896469,2.403916-3.910416,3.701081-.216705,20.15979-.11113,40.323074-.062408,60.485519.000717.300903.224731.601273.535308,1.380585c19.872193-1.293747,39.545929-4.496292,59.30066-9.814316Z" transform="translate(3.063892 37.883687)"/>
	<path d="M295.622131,452.342407c14.750885,6.0914,29.13617,12.027619,43.911408,18.124756-3.857117,13.640686-7.343689,25.970856-10.867493,38.43277-71.258148-40.537445-142.050262-40.571442-213.334442-.06958-1.030663-3.231842-2.156708-6.455139-3.084793-9.734467-2.212227-7.816772-4.194756-15.701507-6.562737-23.469574-.808601-2.652649-.734596-4.165161,1.944138-5.639953c23.491173-12.933014,48.440178-21.622651,74.889687-25.961029c5.551223-.910523,11.163284-1.49112,16.766037-2.028595c2.667572-.255921,3.837081-1.306794,3.751007-4.076905-.144471-4.649292-.039536-9.306335-.039536-14.402252c12.639023,0,24.991303,0,38.004273,0c0,4.851013.100112,9.628143-.038514,14.398346-.079818,2.746277,1.020386,3.886688,3.731125,4.070709c17.298828,1.174347,34.06839,5.02005,50.92984,10.355774Z" transform="translate(2.615791-98.21014)"/>
	<rect width="36.908938" height="30.042159" rx="0" ry="0" transform="matrix(1.046512 0 0 2.657557 205.328829 270.366985)" stroke-width="0"/>
	<rect width="45" height="45" rx="0" ry="0" transform="translate(596.735244 350.205734)" stroke-width="0"/>
</svg>
