<svg xmlns="http://www.w3.org/2000/svg" xmlns:xlink="http://www.w3.org/1999/xlink" viewBox="0 0 377 377" fill="white">
	<g transform="translate(29.052321 53.578482)">
		<path d="M278.2,152.3v0c-1.5,3.3-3.2,6.6-5,9.8-.6,1.1-.4,2.5.6,3.4c3.6,3.1,7.2,6.9,10,11c.6.9,1.7,1.4,2.7,1.2c1.7-.3,3.4-.6,5.1-1c1.6-.4,3.2.8,3.3,2.4l.7,9.7c.1,1.7,1.7,2.8,3.3,2.4c14.2-3.3,20.5-20.6,11.4-33.8-4.7-6.7-21-5.5-32.1-5.1Z" />
		<path d="M310.2,127c1.8,3.3,1.3,9.4-.1,11.5-.9,1.5-2.3,2.4-3.3.8-.6-1-.1-3.6-.5-4.8-.3-.9-.8-1.8-1.3-2.6-.5.4-1,.8-1.6,1.1-.2,3.6-3.2,8.4-5.2,9.6-1.5.9-3.2,1.1-3.3-.8-.1-1.1,1.6-3.2,1.8-4.5.1-.5.1-.9.1-1.4-3.9.8-8.5.3-14.3-2.1-.3-.1-.6,0-.7.3-3.6,11.4-8.2,22.2-14.1,31.7-.1.2-.1.5.1.7c8.8,6.7,17,16.3,17.2,25.1.1,3.6-.9,7.3-2.6,10.6-7.2,14.4-22.6,14.6-31.9,8.6-.2-.2-.3-.5-.2-.7l9-14.3c.2-.3.1-.6-.2-.8-4.1-1.7-8.2-3.7-12.3-5.9-.2-.1-.4-.1-.6,0-39.2,28-94.4,7.3-115.8,17.9C113,222,88.7,231.4,63,227.3c-.1,0-.2,0-.4.1L34.2,244.5c-.1.1-.2.2-.2.3-5.4,17.5-17.8,21.4-33.5,18.7-.3-.1-.5-.4-.4-.7l13.1-33.4c0-.1.1-.2.2-.3l46.4-28.9c0,0,.1,0,.1-.1c10-2.8,18.5-10.2,24.6-19.3c2-3.3.3-6.7-1.6-9.2-1.6-2-3.9-3.3-6.5-3.6-7-.8-23.3-4.1-20.8-17.2.1-.3.3-.5.6-.4c7.6,1.2,14.3,2.4,22-.1c9.7-3.1,29.4-14.6,48.3-22.2c2.3,2.8,5.3,5.6,8.5,7.6.1.4.2.8.3,1.1.4,1.4.9,2.8,1.7,4.1.1.2.2.4.3.5v0v.1l.2.4.1.1.1.1c8,12.8,23.4,15.7,29.7,16.3c1.1.1,2.2.2,3.4.2.2.2.3.4.5.6.3.3.6.7,1.1,1c3.4,2.9,7.9,4.1,12.3,3.6c4.2-.5,9.3-1.6,11.7-4.3.7-.8,1.3-1.6,1.9-2.3c1-1.4-.3-3.3-1.9-2.8-3,.8-6.7,1.7-9.3,1.7-2.5,0-4.9-.4-7.2-1.2-.7-.2-1.3-.6-1.8-1.2-.7-.8-1-1.7-1-2.6c0-.1,0-.3,0-.4s0-.3.1-.4c0-.1.1-.2.1-.4c0,0,0,0,0-.1s0-.2.1-.2c0-.1,0-.1.1-.2c0-.1.1-.1.1-.2s.1-.1.1-.2.1-.1.1-.2.1-.1.1-.2.1-.1.1-.2.1-.1.2-.2.1-.1.2-.2c0,0,.1-.1.1-.1s.1-.1.1-.1c.1-.1.2-.1.2-.2-.1,0-.2,0-.3.1-.1,0-.2,0-.3,0-.3,0-.5.1-.8.1-.4.1-.8.1-1.2.2-.3,0-.6.1-.9.1-.7.1-1.3.1-2,.2-.4,0-.7.1-1.1.1-.3,0-.5,0-.8,0-.5,0-.9,0-1.4,0-1.5,0-3-.1-4.6-.2-7.3-.7-15.9-3.7-20-10.2l-.2-.4c-.1-.1-.1-.2-.2-.3-.2-.3-.3-.6-.4-1-.6-2.1.7-4.3,2.8-4.9.1,0,.2-.1.3-.1-.6-.2-1.3-.3-1.9-.5-4.1-1.3-7.7-3.3-10.5-6c.2-.1.4-.1.6-.2.1,0,0-.3-.1-.2-2.4-2.3-4.3-5.3-5.4-8.8l-.1-.3-.1-.3c-.1-.2-.1-.3-.1-.5c0-1.2.5-2.3,1.3-3-.3-.1-.6-.3-.9-.4-6-2.7-10.3-7.3-11.6-14l-.1-.3v-.3c0-1.4.7-2.7,1.8-3.4-.8-.4-1.6-.9-2.4-1.3-5.9-3.7-8.7-9.1-8.7-15.9-.1-.5,0-1,.2-1.5.3-1,1.1-1.8,2.1-2.2-.5-.4-.9-.7-1.3-1.1-5.7-5.3-7.9-12.1-7.3-19.7v-.3l.1-.3c.1-.5.3-.9.5-1.3.5-.7,1.1-1.2,1.8-1.5-4.6-6.3-6.7-13.9-6.7-21.8-.1-1,.3-2,1-2.8c1.1-1.2,2.7-1.6,4.1-1.1-.5-1.4-.9-2.9-1.3-4.5-1.1-5.1-.9-10.2.7-15.2.3-.8.7-1.5,1.4-2c1.8-1.3,4.2-.9,5.5.9c3.4,4.6,7.1,8.8,11.3,12.7c3.8,3.6,7.8,6.9,11.9,10.1c1.6-.4,3.2.1,4.2,1.5c3.2,4.4,7.1,8.1,11.5,11.3c3.7,2.8,7.8,5.1,11.9,7.1.1-.3.4-.7.7-.9c1.6-1.6,4-1.6,5.6-.1c4.2,4,8.9,7.3,14,10c5.3,2.7,10.9,4.7,16.8,5.9c3.2.7,6.7,1.8,9.4,3.9c2.6,2.1,4.1,5.1,3.6,8.4-.9,6.3-.7,12.8,1.9,18.8.7,1.8,4,6.4,3.4,5.9c2,2.2,6.7,6.3,11,11.8c2.9-.6,5.8-1.3,8.7-2.2c1.7-1.8,2.8-3.4,3.4-4.5.4-3.8,1.6-7.3,3.5-10.2-25.7-15.9-33.8-41.6-33-70.3c0-1.7,1.7-2.9,3.3-2.5c39.4,9.1,47.1,56,53.5,59.6c4.8-2.2,8.4-1.4,8.8-1.4.9-2.3,1.8-4.7,2.5-7.1.6-1.9.9-3.8.9-5.8.1-7-2-13.6-4-20.2-1.3-4.2-3.2-8-6.2-11.1-2.4-2.4-5.1-4.3-7.8-6.3-4-2.9-5.1-5.3-3.7-9.4.2-.7.7-1.2,1.1-1.7.3-.2.9-.3,1.2-.1.2.1.4.8.3,1.1-.7,2.6-.5,3.4,2.3,5.5c1.6,1.3,3.5,2,5.3,3c.6.3,1.1.7,1.9,1.1-.3-1.1-.7-2-.8-2.9-.9-5.2.3-9.8,3.5-14c.6-.7,1-1.6.7-2.6-.1-.4.2-1.1.5-1.3.5-.1,1.3,0,1.5.3.3.6.5,1.4.3,2-.5,1.7-1.3,3.3-1.8,5-1.3,4.3-1.1,8.6-.1,12.9.7,2.7,1.6,5.5,3,7.8c2.2,3.4,3.9,6.9,5,10.9.1.4.6.7.9,1.1.3-.4.7-.8.8-1.2c1.2-4.5,3.2-8.6,5.9-12.4c1.5-2,3.1-4,4.5-6c.5-.7.5-1.7.7-2.5.1-.5.3-1.3.7-1.3.5-.1,1.2.2,1.6.5.9.9.7,2.6,0,3.7-1.3,2-2.7,4-3.7,6.1-4.5,9.6-6.3,19.7-4.7,30.2.4,2.6,1,5-.2,7.5-.1.1-.1.1-.1.1.1.3.2.6.3.9.3-.1.7-.2.8-.4.3-.4.4-.9.6-1.3.7-1.6,1.3-3.3,2.2-4.7c1.6-2.4,4-4,6.5-5.6c3.2-2,6.7-3.4,10.5-4.2.7-.1,1.1.1,1.2.7c0,.4-.3,1-.7,1.2-2,1.3-4.2,2.4-6.1,3.9-5.3,4.1-8.8,9.6-10.1,16.3-.5,2.4-.6,4.7-.1,7.2.4-.3.7-.5.9-.8c4.5-4.2,9.5-7.2,15.6-8.4c1.8-.3,3.6-.4,5.5-.4.4,0,.9.6,1.3.9-.4.3-.7.8-1.2.9-2.3.3-4.4,1.3-6.4,2.3-4.7,2.3-8.7,5.3-11.3,9.9-.1.1-.1.1-.1.2.5.7,1.1,1.4,1.6,2.2l17.9,25.6c.7,1,.6,2.4-.2,3.3-1.6,3.1-3.9,5.8-6.2,8Z" />
	</g>
</svg>
