<svg xmlns="http://www.w3.org/2000/svg" xmlns:xlink="http://www.w3.org/1999/xlink" viewBox="0 0 144 144" enable-background="new 0 0 144 144" fill="white">
	<path d="M145.000000,45.666668C143.577332,49.848431 142.981277,54.110107 139.123856,56.529751C145.083618,62.622524 143.102341,68.222343 133.648575,72.051804C137.740204,74.255554 138.255051,77.163490 135.634766,80.572105C133.191986,83.749794 129.392258,83.145576 126.066780,83.681244C127.536728,92.810349 123.955864,95.614105 113.402466,93.857063C112.953423,96.508324 114.629990,100.033745 110.364616,101.161453C105.501511,102.447182 99.467346,100.181168 96.917984,95.809639C96.175026,94.535667 95.726883,93.089775 95.041954,91.484428C90.965912,92.262108 89.922440,94.879204 90.753525,98.349525C92.181221,104.311096 93.880600,110.207329 95.439911,116.137840C95.846939,117.685860 96.901268,119.407669 95.016144,120.660652C93.281448,121.813644 91.430511,121.358505 89.847221,120.302063C87.928329,119.021698 86.158417,117.518036 84.133507,115.964851C82.080376,120.144272 82.550079,124.707817 81.380989,128.899551C80.936417,130.493530 80.593529,132.119263 80.078896,133.689423C79.460953,135.574738 78.128487,136.939209 76.131187,137.000046C73.858612,137.069229 72.554512,135.508972 71.831306,133.475769C69.766312,127.670341 69.893028,121.432785 68.164284,115.327003C65.845322,117.298164 63.983376,119.901779 61.000607,120.934456C57.369843,122.191452 55.530617,120.629524 56.376915,116.906296C57.774529,110.757599 59.092773,104.574997 60.886070,98.537865C62.024872,94.704086 60.884884,92.524902 57.115448,90.850655C55.029926,95.036575 53.454556,99.788841 48.392239,101.068825C45.856319,101.709999 43.131283,101.726471 40.530735,100.727097C36.951149,99.351486 37.693195,96.807808 38.923218,94.131714C29.708986,95.361511 21.427326,92.613510 26.384085,84.221504C23.087496,82.900040 19.129530,83.692070 16.430099,80.559990C13.246822,76.866508 14.914418,74.381775 18.042280,71.925217C13.480124,70.129539 9.815066,67.701378 8.757385,62.782131C8.043134,59.460178 10.772187,58.663017 13.602395,57.729641C9.957435,54.328804 7.413942,51.030758 7.636248,46.293900C7.752547,43.815811 8.623879,42.657761 11.190541,42.669609C21.520025,42.717297 31.850163,42.722279 42.179466,42.653751C45.561665,42.631313 46.459911,44.448208 46.354790,47.418850C46.133625,53.668911 48.721268,58.724972 53.284683,62.809631C56.356758,65.559402 58.188145,65.086494 59.588715,61.385098C62.223709,54.421387 57.378662,38.299026 51.431938,34.006393C47.967812,31.505819 44.039925,32.601425 40.286552,32.398064C35.864464,32.158474 33.583694,28.696171 36.701221,26.240339C42.600231,21.593397 47.353283,14.622444 56.177532,14.620372C61.190708,14.619195 65.195145,16.001997 68.011795,20.491083C70.388733,24.279385 73.212883,27.787085 76.011253,31.657064C78.558685,27.947418 81.068748,24.143982 83.729164,20.448793C89.311195,12.695642 100.215492,12.225428 106.396751,19.580751C108.121933,21.633617 110.644577,22.066809 112.597206,23.593191C114.992950,25.465948 116.970146,27.665844 116.001442,30.734404C115.123749,33.514664 112.233154,32.433849 110.327660,32.192772C101.953728,31.133339 97.258995,35.330311 94.363052,42.586838C92.238564,47.910297 91.079193,53.409286 91.559944,59.103390C91.729973,61.117237 92.170876,63.621983 94.669075,64.380852C97.204575,65.151062 98.678841,63.258850 100.098656,61.631741C103.732452,57.467392 105.452881,52.548878 105.659668,47.059269C105.733757,45.092381 105.392387,42.757347 108.427071,42.756683C119.909912,42.754162 131.397217,42.266586 142.872726,43.030231C143.336563,43.061100 143.777679,43.433296 144.614685,43.823231C145.000000,44.444447 145.000000,44.888889 145.000000,45.666668
	M61.735020,114.278229C65.633514,112.885773 65.525780,108.773338 67.312103,105.955383C68.089149,104.729584 68.206772,102.806671 70.174873,103.100060C72.356407,103.425270 72.291054,105.348938 72.313660,107.025871C72.347343,109.524261 72.073586,112.056602 72.390160,114.515327C73.099724,120.026138 73.080612,125.754349 75.864738,131.124619C77.292145,129.785782 77.491638,128.686264 77.674820,127.497025C78.683838,120.946251 80.123276,114.448166 79.696701,107.745117C79.599808,106.222519 79.751923,104.522530 81.579414,104.118408C83.491493,103.695580 84.074364,105.245384 84.604012,106.723976C85.785591,110.022560 87.578857,112.899460 90.905769,115.378838C90.557510,114.095268 90.303474,113.329170 90.143974,112.543861C88.992859,106.875992 86.517525,101.452835 86.709618,95.544579C86.853661,91.114449 89.048553,87.957504 93.457558,86.781006C97.995491,85.570107 98.916039,88.991806 100.288658,92.135315C101.810173,95.619820 104.173676,98.231094 108.699539,97.212067C108.864944,94.367226 107.513268,92.168297 106.990837,89.780655C106.576385,87.886475 105.818291,85.436317 107.738068,84.248009C110.154999,82.751968 111.068451,85.435402 112.324471,86.838623C115.041199,89.873734 117.915863,91.999420 121.861450,88.673828C119.634026,83.968323 115.230339,80.726517 113.674477,75.222824C120.266296,73.532028 125.272652,84.831299 132.112381,76.961517C128.436844,73.241135 123.247520,71.522369 120.563263,66.739159C123.742813,64.782440 126.258049,66.098129 128.652161,66.933006C132.941696,68.428841 135.496506,66.735474 137.405457,63.059845C135.468964,61.044018 133.022827,60.909096 130.952042,59.962860C128.839432,58.997509 124.950729,59.390419 125.191338,56.413044C125.444740,53.277428 128.993912,54.975773 131.064880,54.672806C136.296539,53.907471 139.379166,51.055794 139.007599,46.417351C130.247147,46.417351 121.440819,46.415344 112.634483,46.418560C109.950806,46.419540 109.636627,48.116276 109.313423,50.369133C108.478477,56.189289 106.686073,61.680496 102.275818,65.946404C99.277519,68.846565 95.508759,69.015106 91.983292,68.019150C88.685867,67.087601 88.168022,63.486919 87.818039,60.623669C87.064735,54.460804 87.839493,48.288128 89.877441,42.455738C92.781662,34.144176 97.111130,27.249876 107.685898,28.523880C108.337166,28.602341 108.975517,28.219242 109.207138,27.327099C107.785225,25.056444 104.820000,24.825882 103.037704,22.677803C97.906631,16.493673 92.199615,16.789280 87.267914,23.091949C83.976662,27.298149 81.449112,31.987476 78.773209,36.588303C76.724022,40.111595 75.128357,40.112221 73.227646,36.562878C70.550133,31.562967 67.364220,26.907562 63.947495,22.414467C60.938862,18.458021 56.646442,17.217297 52.973801,19.206232C49.098839,21.304735 47.014217,25.546846 42.194416,26.939335C44.688042,29.166862 46.610664,28.499203 48.365662,28.643114C51.442745,28.895433 54.363228,29.577339 56.327705,32.138191C62.936962,40.753906 64.928932,50.633884 63.822926,61.225647C63.510185,64.220650 62.712219,67.418358 59.146473,68.145126C55.233864,68.942604 51.494694,68.407761 48.718342,65.008896C45.385319,60.928535 42.901417,56.357334 42.773182,51.065544C42.679588,47.203480 41.095055,46.247349 37.600437,46.325581C30.274496,46.489590 22.942013,46.347740 15.612350,46.372150C14.336481,46.376404 12.883545,46.031303 11.915702,47.730755C13.176323,52.922394 17.231329,54.186100 21.966785,54.686481C23.732370,54.873043 26.602978,53.566620 26.901495,56.432678C27.171940,59.029182 24.092810,58.597713 22.509245,59.540607C19.875704,61.108692 16.165623,60.112446 13.948073,63.043896C15.568212,67.505714 18.649338,68.257301 22.734388,67.069702C25.428528,66.286453 28.177000,64.446121 31.331043,66.994476C28.836266,71.974968 22.567551,72.604385 19.978758,77.448524C24.469744,81.822601 28.138975,78.999466 31.897631,76.477859C33.323601,75.521194 34.987400,73.610062 36.659248,75.562035C38.108528,77.254150 36.555000,78.982872 35.522743,80.467079C33.588081,83.248795 31.054272,85.667038 29.977720,89.301064C33.797325,91.387123 36.573669,89.949219 38.975147,87.366249C40.500694,85.725403 41.634708,82.590782 44.293446,84.287399C46.386192,85.622833 45.222824,88.484833 44.781292,90.767387C44.371681,92.884949 42.340370,94.913918 44.279716,97.465088C48.568615,96.998985 50.999584,94.493759 52.502476,90.624001C54.321423,85.940437 57.815651,85.250565 61.741306,88.528839C65.235535,91.446823 65.981796,95.083412 64.949173,99.319595C63.771770,104.149712 62.645054,108.992180 61.735020,114.278229
	z"/>
</svg>