<svg xmlns="http://www.w3.org/2000/svg" xmlns:xlink="http://www.w3.org/1999/xlink" viewBox="0 0 336 336" fill="white">
	<path
		d="
		M132.008728,32.653412
		C164.338577,32.654346 196.171265,32.764122 228.001694,32.545357
		C233.069702,32.510529 234.790405,33.936649 234.428635,39.011082
		C234.014908,44.814472 234.179886,50.676182 234.396149,56.501312
		C234.535660,60.259163 233.003647,61.552776 229.396713,61.357815
		C225.741135,61.160229 222.061020,61.441975 218.401276,61.286800
		C215.537338,61.165367 214.601700,62.402756 214.626923,65.129997
		C214.787170,82.456490 214.803955,99.784431 215.005173,117.110313
		C215.056808,121.557289 218.195007,124.591721 222.605057,124.617119
		C236.603958,124.697731 250.604126,124.579224 264.602600,124.691109
		C267.982025,124.718109 268.964966,123.200874 268.872650,120.137909
		C268.762299,116.475441 268.929169,112.805496 268.885345,109.139870
		C268.848053,106.024818 270.177063,104.623703 273.404724,104.681572
		C280.235413,104.804054 287.073486,104.841248 293.901550,104.656555
		C297.491791,104.559433 298.483887,106.140388 298.431702,109.450562
		C298.295135,118.114723 298.379333,126.782394 298.379486,135.448669
		C298.379974,161.947510 298.254395,188.447510 298.494751,214.944183
		C298.541290,220.076920 296.931854,221.701477 291.934418,221.386093
		C285.958282,221.008972 279.937042,221.167221 273.942108,221.334915
		C270.328430,221.435989 268.721191,220.067596 268.842194,216.393127
		C268.979218,212.231445 268.753204,208.057907 268.886292,203.895966
		C268.990814,200.628479 267.947205,198.977905 264.353607,199.010910
		C251.188644,199.131760 238.021530,199.009964 224.856186,199.107544
		C220.236633,199.141785 216.999008,202.280212 216.982071,206.972153
		C216.887665,233.137238 216.950439,259.302826 216.898895,285.468140
		C216.892487,288.714111 218.357254,289.921417 221.474854,289.826019
		C225.137375,289.713867 228.806732,289.846405 232.472778,289.821564
		C235.183624,289.803192 236.368118,291.065338 236.340515,293.795837
		C236.268112,300.961365 236.269150,308.128387 236.327545,315.294098
		C236.348572,317.873199 235.036163,318.888123 232.670364,318.954712
		C231.337997,318.992188 230.004883,319.022491 228.672104,319.022949
		C195.006943,319.034698 161.341766,319.048645 127.676605,319.045258
		C119.973572,319.044495 119.892609,318.934540 119.901825,311.216644
		C119.907799,306.216888 120.109116,301.207581 119.864700,296.220123
		C119.637703,291.588135 121.194778,289.393616 126.133705,289.764801
		C130.109543,290.063629 134.130142,289.708984 138.127426,289.798828
		C141.196640,289.867737 142.686646,288.810760 142.674881,285.467590
		C142.591034,261.635620 142.614151,237.803238 142.637054,213.971024
		C142.639465,211.472305 141.828369,209.498169 139.914597,207.827957
		C137.785339,205.969635 135.729263,203.998749 133.850204,201.890686
		C132.047623,199.868439 129.993027,198.986450 127.279076,199.002228
		C113.613441,199.081726 99.946037,199.148026 86.281799,198.993851
		C82.334564,198.949341 80.903152,200.426407 81.115875,204.283691
		C81.335777,208.271103 81.053261,212.283890 81.183495,216.279266
		C81.299820,219.848465 79.909760,221.433350 76.196136,221.330948
		C69.867935,221.156418 63.520466,221.058472 57.202023,221.362854
		C52.709316,221.579269 51.530910,219.788254 51.555714,215.527557
		C51.705109,189.862900 51.624138,164.196930 51.622566,138.531387
		C51.621983,129.031799 51.791946,119.528122 51.555187,110.034515
		C51.450260,105.827133 53.021633,104.491371 57.079567,104.648109
		C63.569794,104.898788 70.077782,104.805885 76.575523,104.696182
		C79.761635,104.642387 81.180550,106.000595 81.146950,109.135414
		C81.107658,112.801292 81.251228,116.471069 81.137215,120.133606
		C81.042175,123.186935 82.003120,124.722191 85.396202,124.694542
		C100.227951,124.573692 115.061516,124.684761 129.893555,124.584694
		C134.673172,124.552452 140.567444,118.698006 140.595932,113.932037
		C140.692581,97.766647 140.603500,81.600197 140.682892,65.434631
		C140.697510,62.458645 139.599640,61.198582 136.570953,61.288567
		C132.075348,61.422127 127.565689,61.156368 123.074814,61.352962
		C119.470947,61.510723 117.865570,60.186096 117.943077,56.487404
		C118.075737,50.157215 118.076935,43.820229 117.943916,37.490074
		C117.867142,33.836090 119.353577,32.344086 123.015686,32.615856
		C125.832809,32.824928 128.678055,32.654999 132.008728,32.653412
		M161.909119,219.000580
		C158.626389,217.972290 155.343658,216.944000 151.349213,215.692780
		C151.349213,218.277664 151.349442,220.232758 151.349167,222.187866
		C151.345703,246.171417 151.280624,270.155273 151.401535,294.138214
		C151.420853,297.971161 150.315201,299.629395 146.278000,299.348328
		C142.134293,299.059784 137.942764,299.481842 133.794495,299.227966
		C129.700119,298.977448 129.213226,301.156982 129.236755,304.469238
		C129.259827,307.720184 129.604355,309.899231 133.759521,309.748749
		C140.745422,309.495819 147.747375,309.688354 154.742569,309.689301
		C177.227158,309.692261 199.712280,309.613892 222.195831,309.767365
		C226.310776,309.795441 227.690933,308.478973 227.704681,304.327393
		C227.719376,299.890381 225.734604,298.907898 221.906876,299.232666
		C219.426361,299.443085 216.913559,299.288483 214.415390,299.272369
		C207.702423,299.229034 207.667572,299.223724 207.664352,292.668091
		C207.652054,267.685211 207.679337,242.702316 207.634552,217.719528
		C207.631454,215.988403 208.259827,214.102859 206.856308,212.251251
		C201.376480,215.090591 195.935623,218.233047 189.835876,219.047760
		C184.317245,219.784805 183.010712,222.302917 183.089661,227.606934
		C183.404419,248.754395 183.173752,269.909454 183.269318,291.061127
		C183.286148,294.783478 182.572693,297.071014 178.137085,297.082184
		C173.606979,297.093597 173.616516,294.403046 173.624832,291.160980
		C173.675232,271.507904 173.650055,251.854645 173.646667,232.201447
		C173.644745,221.108978 173.641769,221.108978 161.909119,219.000580
		M149.350189,93.498489
		C149.350189,99.254028 149.350189,105.009575 149.350189,111.545921
		C155.609512,109.101372 160.947510,106.569641 166.702881,106.055809
		C171.032379,105.669281 171.742340,103.591393 171.704285,99.867081
		C171.561356,85.878357 171.774536,71.885612 171.585587,57.897995
		C171.528473,53.670521 173.457291,52.824791 177.072525,53.010204
		C180.799393,53.201344 181.234924,55.471817 181.228073,58.440472
		C181.195831,72.430573 181.205078,86.421013 181.286026,100.410828
		C181.296692,102.256577 180.474319,104.979202 183.199448,105.448189
		C190.725342,106.743370 197.854645,109.254822 205.660843,112.797958
		C205.660843,110.103409 205.660385,108.331169 205.660904,106.558937
		C205.665649,90.570107 205.742599,74.580734 205.619919,58.592880
		C205.592545,55.023712 206.641083,53.373623 210.438004,53.607960
		C214.253860,53.843475 218.096161,53.669449 221.926590,53.638828
		C223.240814,53.628326 224.918900,53.820400 225.350235,52.257889
		C226.198669,49.184513 226.381927,45.882812 225.374939,42.914276
		C224.477188,40.267776 221.621521,41.367863 219.617111,41.363129
		C191.137146,41.295895 162.656998,41.312202 134.176880,41.314281
		C125.868179,41.314888 125.995255,41.319241 126.272171,49.652176
		C126.374519,52.731949 127.567764,53.753338 130.494736,53.671902
		C135.154419,53.542263 139.827332,53.800568 144.481750,53.598133
		C148.152420,53.438484 149.447495,54.846924 149.395081,58.523628
		C149.233688,69.846664 149.345215,81.173584 149.350189,93.498489
		M217.954559,172.427551
		C219.172974,166.146530 219.099274,159.894562 217.677002,153.642593
		C212.622208,131.422989 189.838165,116.927567 166.989746,121.425705
		C144.571106,125.839233 129.009476,148.675995 133.203400,171.007278
		C137.038544,191.428131 153.810547,205.897537 173.534439,206.870102
		C195.830627,207.969513 213.816559,191.777802 217.954559,172.427551
		M122.370453,189.352158
		C124.557442,188.091476 123.264885,186.458405 122.762436,184.996475
		C121.520271,181.382233 119.990578,177.837021 119.653931,173.991028
		C119.326080,170.245438 117.427429,168.973251 113.727707,169.026779
		C102.571724,169.188248 91.409790,168.948181 80.254219,169.122742
		C75.807312,169.192337 73.594788,168.129822 73.555511,163.027420
		C73.516769,157.995148 75.490204,156.778381 80.057320,156.864670
		C91.211662,157.075409 102.373001,156.945770 113.531219,156.891083
		C115.435944,156.881760 118.081734,157.533554 118.634300,154.958298
		C120.160950,147.843307 122.697937,141.065552 125.499489,134.549973
		C123.391190,132.859207 121.485939,133.407288 119.725220,133.400360
		C105.735710,133.345352 91.744698,133.257858 77.757011,133.422867
		C73.833824,133.469131 72.323586,132.121277 72.628304,128.209747
		C72.873299,125.064972 72.447639,121.866699 72.710533,118.724884
		C73.136375,113.635544 69.715004,114.114441 66.520363,114.104599
		C63.330761,114.094765 60.058872,113.568123 60.256126,118.667725
		C60.532715,125.818314 60.317314,132.987793 60.318493,140.149185
		C60.322132,162.299545 60.456295,184.451187 60.233765,206.599258
		C60.185295,211.423706 62.363167,212.022888 66.282272,211.969650
		C70.167450,211.916885 73.295692,211.857559 72.739250,206.513214
		C72.361855,202.888611 72.937408,199.167969 72.602081,195.535019
		C72.165710,190.807373 74.179504,189.565643 78.632896,189.616379
		C92.951241,189.779541 107.273613,189.588120 122.370453,189.352158
		M289.986572,180.500000
		C290.002441,160.524796 290.041046,140.549561 289.999786,120.574471
		C289.995544,118.520271 290.835724,115.756203 288.426788,114.726196
		C285.670898,113.547852 282.435089,113.601891 279.639343,114.692444
		C277.339996,115.589363 278.254852,118.165100 278.163513,120.057152
		C278.035187,122.714470 277.951721,125.396164 278.162231,128.042526
		C278.495636,132.234512 276.668030,133.479630 272.608582,133.422241
		C259.128021,133.231644 245.642838,133.330276 232.159821,133.398163
		C230.439087,133.406815 228.503922,132.720490 226.707428,134.521332
		C229.373138,140.146667 232.094116,145.911911 232.930359,152.168961
		C233.449036,156.049973 235.120590,157.039688 238.758545,156.983810
		C250.408035,156.804916 262.067261,157.122406 273.711761,156.822189
		C278.622711,156.695587 279.406097,158.826172 279.473724,163.075562
		C279.545624,167.589203 278.185760,169.258743 273.531555,169.155136
		C261.885132,168.895874 250.228821,169.038467 238.576981,169.107819
		C236.710815,169.118912 233.979034,168.425400 233.568100,171.107117
		C232.637039,177.182877 230.284790,182.834106 228.524536,188.523392
		C230.361420,190.238983 232.286972,189.653534 234.032898,189.661270
		C246.517197,189.716675 259.001923,189.677933 271.486450,189.694611
		C277.952728,189.703247 278.088043,189.852173 278.141235,196.506409
		C278.169189,200.001770 278.363647,203.514999 278.088776,206.988968
		C277.712616,211.742599 280.528748,211.938263 284.060974,211.924438
		C287.584656,211.910645 290.222626,211.702942 290.070953,206.966003
		C289.799377,198.485153 289.990082,189.989471 289.986572,180.500000
		z"/>
	<path
		d="
		M205.499207,183.903992
		C202.820206,186.383865 202.820206,186.383865 199.720596,184.316635
		C196.340759,189.097168 192.250732,193.142075 187.185989,196.174896
		C185.752625,197.033218 184.789703,195.831314 183.474014,195.592239
		C183.694107,198.142029 183.289474,200.366058 180.857147,201.607010
		C178.194305,202.965607 176.526627,201.214325 174.732605,199.659637
		C173.096268,198.241638 171.019699,197.421692 168.941666,197.347565
		C165.619446,197.229050 162.525299,197.163879 161.440964,193.177933
		C161.023499,191.643402 160.206955,192.831390 159.576141,192.972794
		C158.143311,193.293930 156.680786,192.840027 155.851028,191.963928
		C153.353241,189.326630 150.364685,187.522369 147.328232,185.612762
		C144.926651,184.102432 144.018921,181.593399 146.580765,178.885544
		C150.091599,175.174591 153.370926,171.244629 157.106903,167.002701
		C160.390808,169.133270 163.663284,171.381348 167.058746,173.425064
		C170.623581,175.570740 173.649368,178.952286 178.698486,177.587067
		C180.649155,177.059601 182.702957,178.312866 181.662201,182.223038
		C184.552170,177.441528 188.885956,177.013931 192.755737,175.182907
		C190.385742,170.521729 194.704010,169.406525 197.619492,167.761307
		C200.382919,166.201904 202.672089,164.850845 200.102646,161.119385
		C198.460800,161.110931 196.213104,161.892853 195.176376,159.524841
		C194.127640,157.129425 196.860275,156.138580 197.273590,154.182556
		C194.345016,146.446503 184.059555,143.116928 183.726013,132.538086
		C194.650818,133.880569 197.193985,144.338043 205.187653,148.934479
		C205.991287,149.095535 206.700165,147.606934 207.882111,147.125504
		C210.861435,145.911911 212.421219,147.796448 211.862091,150.110672
		C211.367630,152.157272 211.647018,153.146500 212.725906,154.836914
		C215.696365,159.491074 214.623276,166.263031 210.692673,170.234467
		C207.016174,173.949142 207.547958,179.214752 205.499207,183.903992
		M168.761108,187.553009
		C168.597748,188.225586 167.691147,188.744156 168.322128,189.701599
		C170.734528,187.506210 170.879791,182.741714 175.647888,183.426620
		C174.243729,182.992554 172.839569,182.558487 171.478790,182.137833
		C170.659851,183.814819 169.865906,185.440643 168.761108,187.553009
		z"/>
	<path
		d="
		M162.080078,129.985565
		C164.256546,128.726181 166.097900,127.591141 168.050354,126.699417
		C169.540512,126.018837 171.228836,125.256882 172.203156,127.587379
		C172.991211,129.472290 172.333023,130.692322 170.724030,131.781723
		C167.489258,133.971863 164.846161,136.689514 163.722961,140.585419
		C163.392685,141.730988 163.162506,142.864716 164.198334,143.904404
		C166.191177,144.354263 167.555206,142.918579 169.120544,142.083435
		C171.043488,141.057495 172.968018,139.623474 174.720947,142.303436
		C176.625015,145.214508 174.420166,146.429703 172.474609,147.821564
		C171.022568,148.860367 169.184418,149.522003 168.528946,151.417603
		C171.222412,155.676865 175.278732,156.928238 180.524414,155.068939
		C181.772491,154.626556 183.007675,154.061386 184.125275,153.356781
		C186.000748,152.174347 187.457596,152.202652 188.745285,154.222214
		C189.978775,156.156723 189.376907,157.540375 187.926041,159.050369
		C181.474640,165.764587 166.985367,166.251923 159.890610,159.919693
		C152.465897,153.292969 151.743393,141.807816 158.299164,133.770798
		C159.345032,132.488602 160.622406,131.395233 162.080078,129.985565
		z"/>
</svg>